<svg id="Слой_1" data-name="Слой 1" xmlns="http://www.w3.org/2000/svg" viewBox="0 0 1225.27 815.42"><defs><style>.cls-1,.cls-4{fill:none;}.cls-2{fill:#4d4d4d;stroke-width:0.57px;}.cls-2,.cls-4,.cls-6{stroke:#000;}.cls-2,.cls-4{stroke-miterlimit:5.69;}.cls-3{fill:#f9ff5b;}.cls-4{stroke-width:23px;}.cls-5{fill:#2d2d2d;}.cls-6{stroke-miterlimit:10;}</style></defs><g id="Слой_2" data-name="Слой 2"><path class="cls-1" d="M7751.37,7607.57H6571c-9.75,0-17.7-9.7-17.7-21.74V6909.57c0-12,7.95-21.73,17.7-21.73H7751.37c9.75,0,17.69,9.73,17.69,21.73v676.3C7769.06,7597.84,7761.15,7607.57,7751.37,7607.57Z" transform="translate(-6543.79 -6792.15)"/><rect class="cls-1" x="248.49" y="251.5" width="13.56" height="5.94"/><rect class="cls-2" x="13.88" y="0.28" width="1207.07" height="789.41"/><rect class="cls-2" x="0.28" y="288.99" width="13.56" height="212.54"/><path class="cls-3" d="M7376.7,7447.56H6965.19c-51.49,0-93.2-26.18-93.2-58.53V6974.18c0-32.26,41.71-58.53,93.2-58.53H7376.7c51.49,0,93.2,26.18,93.2,58.53V7389C7469.71,7421.38,7428,7447.56,7376.7,7447.56Z" transform="translate(-6543.79 -6792.15)"/><rect class="cls-1" x="1088.59" y="147.01" width="3.88" height="7.14"/><rect class="cls-1" x="1089.8" y="130.66" width="79.76" height="163.11"/><path class="cls-4" d="M7361.84,7419.79H6979.05c-42.47,0-77-21.23-77-47.48V6994.37c0-26.24,34.34-47.48,77-47.48h382.79c42.46,0,77,21.24,77,47.48v377.94C7438.85,7398.45,7404.3,7419.79,7361.84,7419.79Z" transform="translate(-6543.79 -6792.15)"/><rect class="cls-1" x="41.51" y="102.96" width="271.58" height="103.58"/><rect class="cls-1" x="92.05" y="281.11" width="369.39" height="131.7"/><rect class="cls-5" x="27.44" y="19.33" width="1166.35" height="58.36"/><rect class="cls-5" x="31.79" y="728.94" width="1166.35" height="58.36"/></g><polygon class="cls-6" points="612.8 185.24 700.17 185.24 578.73 380.07 700.17 375.23 537.66 605.29 618.92 413.23 521.06 416.68 612.8 185.24"/></svg>