<svg id="Слой_1" data-name="Слой 1" xmlns="http://www.w3.org/2000/svg" viewBox="0 0 477.78 454.32"><defs><style>.cls-1{fill:#404040;}.cls-2{fill:#202020;}.cls-3{fill:#101010;}.cls-4{fill:#8c8c8c;}</style></defs><rect class="cls-1" width="477.78" height="454.32" rx="12"/><rect class="cls-2" x="17.65" y="16.57" width="441.6" height="421.41" rx="12"/><path d="M7169,7108.15s51.73-76.73,2.76-144.15a90.07,90.07,0,0,0-66.89,4.91c3.66,10.46,9.32,26.69,16.36,47l3.75,10.84c4.82,14.21,9.61,38.31,8.51,81.26Z" transform="translate(-6911.85 -6926.04)"/><path d="M7133.45,7107.83s-9.7-92-90.54-112.19a90.06,90.06,0,0,0-48.09,46.75c9.53,5.66,24.29,14.45,42.75,25.5l9.84,5.89c12.82,7.78,32,23.17,58.76,56.78Z" transform="translate(-6911.85 -6926.04)"/><path d="M7106.05,7130.41s-66.59-64.27-141.48-27.75a90.13,90.13,0,0,0-6.78,66.73c10.93-1.79,27.89-4.54,49.13-8l11.33-1.81c14.83-2.28,39.4-2.81,81.51,5.73Q7102.9,7147.89,7106.05,7130.41Z" transform="translate(-6911.85 -6926.04)"/><path d="M7099.57,7165.32s-92.32-6.43-126.21,69.69a90.11,90.11,0,0,0,37.69,55.47c7.23-8.4,18.45-21.41,32.53-37.67,4.57-5.27,6.85-7.91,7.52-8.67,9.89-11.28,28.37-27.48,66.11-48Z" transform="translate(-6911.85 -6926.04)"/><path d="M7117.05,7196.23s-74.86,54.41-51.9,134.51a90.13,90.13,0,0,0,64.54,18.26c.14-11.08.37-28.26.7-49.77.11-7,.17-10.45.19-11.47.32-15,4.07-39.28,19.79-79.27Z" transform="translate(-6911.85 -6926.04)"/><path d="M7150.3,7208.67s-22.36,89.8,46.71,136.4a90.09,90.09,0,0,0,61.18-27.49c-7-8.58-17.88-21.89-31.45-38.58l-7.24-8.91c-9.38-11.7-22.13-32.71-35.79-73.45Z" transform="translate(-6911.85 -6926.04)"/><path d="M7183.77,7196.82s40.59,83.17,123.46,74.47a90.07,90.07,0,0,0,29.19-60.39c-10.88-2.06-27.77-5.27-48.89-9.33l-11.26-2.18c-14.71-2.92-38-10.83-74.64-33.25Z" transform="translate(-6911.85 -6926.04)"/><path d="M7201.8,7166.23s84.55,37.62,142.43-22.31a90.1,90.1,0,0,0-16.44-65c-9.67,5.42-24.66,13.81-43.46,24.27-6.09,3.39-9.13,5.09-10,5.58-13.14,7.21-36.05,16.12-78.54,22.49Q7198.78,7148.75,7201.8,7166.23Z" transform="translate(-6911.85 -6926.04)"/><path d="M7195.94,7131.22s89-25.54,94.78-108.65a90.09,90.09,0,0,0-54.4-39.24c-3.92,10.36-10,26.43-17.68,46.53-2.49,6.51-3.73,9.77-4.1,10.71-5.44,14-17.26,35.53-45.71,67.72Q7182.39,7119.75,7195.94,7131.22Z" transform="translate(-6911.85 -6926.04)"/><circle class="cls-3" cx="239.54" cy="230.63" r="55.59"/><circle cx="238.92" cy="230.72" r="45.79"/><circle class="cls-4" cx="11.5" cy="13.54" r="6.14"/><circle class="cls-4" cx="465.39" cy="444.13" r="6.14"/><circle class="cls-4" cx="464.92" cy="12.1" r="6.14"/></svg>