<svg id="Слой_1" data-name="Слой 1" xmlns="http://www.w3.org/2000/svg" viewBox="0 0 972.84 121.1"><defs><style>.cls-1{fill:#ccc;}.cls-2{fill:#999;}</style></defs><polygon class="cls-1" points="939.24 119.73 0 121.1 0 97.25 12.35 97.2 12.35 82.26 0 82.14 0 50.65 23.53 50.88 23.62 21.19 0 21.23 0 0.27 972.84 0.27 972.84 71.38 939.59 71.73 939.24 119.73"/><rect class="cls-2" x="53.09" y="0.26" width="11.76" height="66.04"/><rect class="cls-2" x="75.18" width="11.76" height="66.04"/><rect class="cls-2" x="97.06" y="0.18" width="11.76" height="66.04"/><rect class="cls-2" x="145.53" width="11.76" height="66.04"/><rect class="cls-2" x="122" width="11.76" height="66.04"/><path d="M6854.47,7071.85h6.43V7093h23.5v-21.16h6.43v50.53h-6.43v-23.76h-23.5v23.76h-6.43Z" transform="translate(-6593.29 -7042.67)"/><path d="M6904.67,7071.85h12.64c15.54,0,23.87,9,23.87,25.08s-8.33,25.45-23.59,25.45h-12.92Zm12.16,45.26c11.82,0,17.71-7.4,17.71-20.18s-5.89-19.81-17.71-19.81h-5.73v40Z" transform="translate(-6593.29 -7042.67)"/><path d="M6952,7071.85h12.65c15.53,0,23.86,9,23.86,25.08s-8.33,25.45-23.58,25.45H6952Zm12.17,45.26c11.81,0,17.7-7.4,17.7-20.18s-5.89-19.81-17.7-19.81h-5.74v40Z" transform="translate(-6593.29 -7042.67)"/><ellipse class="cls-2" cx="13.09" cy="9.6" rx="5.88" ry="5.18"/><ellipse class="cls-2" cx="13.09" cy="112.42" rx="5.88" ry="5.18"/><ellipse class="cls-2" cx="13.09" cy="65.86" rx="5.88" ry="5.18"/><ellipse class="cls-2" cx="960.91" cy="9.56" rx="5.88" ry="5.18"/><ellipse class="cls-2" cx="960.91" cy="59.68" rx="5.88" ry="5.18"/><rect class="cls-2" x="24.62" y="89.83" width="914.8" height="4.24"/></svg>