<svg id="Слой_1" data-name="Слой 1" xmlns="http://www.w3.org/2000/svg" viewBox="0 0 1143.55 254.12"><defs><style>.cls-1{fill:#d1d1d1;}.cls-2{fill:#ffed24;}.cls-3{fill:#b3b3b3;}</style></defs><path class="cls-1" d="M6647.56,7053.79v86.79c21,1.56,40.94,17.37,40.94,37.1s-19.89,36.25-40.94,37.81v92.42H7791.09v-52.45l-31.77.07,0-17,31.8,0V7123.68l-31.77,0v-16.21l31.77,0v-53.61Z" transform="translate(-6647.54 -7053.79)"/><rect class="cls-2" x="1111.78" y="6" width="31.76" height="5.82"/><rect class="cls-2" x="1111.78" y="19.18" width="31.76" height="5.82"/><rect class="cls-2" x="1111.78" y="32.35" width="31.76" height="5.82"/><rect class="cls-2" x="1111.78" y="45.53" width="31.76" height="5.82"/><rect class="cls-2" x="1111.78" y="71.88" width="31.76" height="5.82"/><rect class="cls-2" x="1111.78" y="85.06" width="31.76" height="5.82"/><rect class="cls-2" x="1111.78" y="98.24" width="31.76" height="5.82"/><rect class="cls-2" x="1111.78" y="111.41" width="31.76" height="5.82"/><rect class="cls-2" x="1111.78" y="124.59" width="31.76" height="5.82"/><rect class="cls-2" x="1111.78" y="137.76" width="31.76" height="5.82"/><rect class="cls-2" x="1111.78" y="150.94" width="31.76" height="5.82"/><rect class="cls-2" x="1111.78" y="164.12" width="31.76" height="5.82"/><rect class="cls-2" x="1111.78" y="177.29" width="31.76" height="5.82"/><rect class="cls-2" x="1111.78" y="203.65" width="31.76" height="5.82"/><rect class="cls-2" x="1111.78" y="216.82" width="31.76" height="5.82"/><rect class="cls-2" x="0.14" y="189.76" width="31.76" height="5.82"/><rect class="cls-2" x="0.14" y="201.06" width="31.76" height="5.82"/><rect class="cls-2" x="0.14" y="212.35" width="31.76" height="5.82"/><rect class="cls-2" x="0.14" y="223.65" width="31.76" height="5.82"/><rect class="cls-2" x="0.14" y="234.94" width="31.76" height="5.82"/><rect class="cls-2" x="0.14" y="44.35" width="31.76" height="5.82"/><rect class="cls-2" x="0.14" y="56.53" width="31.76" height="5.82"/><rect class="cls-2" x="1111.78" y="243.18" width="31.76" height="5.82"/><ellipse class="cls-2" cx="16.08" cy="20.82" rx="9.35" ry="8.12"/><path class="cls-2" d="M6647.54,7215.47V7231c1.86.18,3.74.28,5.65.28,29.43,0,53.29-22.44,53.29-50.11s-23.86-50.12-53.29-50.12c-1.91,0-3.79.1-5.65.28l0,15.27c21,1.56,39.53,13.33,39.53,33.06S6668.59,7213.91,6647.54,7215.47Z" transform="translate(-6647.54 -7053.79)"/><rect class="cls-3" x="114.37" y="40.59" width="859.76" height="163.38"/><path d="M7118.92,7127.71h12.37l15.47,43.14c1.94,5.51,3.79,11.21,5.74,16.82h.49c1.94-5.61,3.64-11.31,5.58-16.82l15.29-43.14h12.37v80.73h-9.54V7164c0-7,.79-16.73,1.3-23.87h-.49l-6.41,18.41-15.2,41.76h-6.81l-15.28-41.76-6.4-18.41h-.49c.52,7.14,1.31,16.84,1.31,23.87v44.45h-9.3Z" transform="translate(-6647.54 -7053.79)"/><path d="M7202.2,7202.45c23.58-23.5,36.91-37.63,36.91-50.38,0-9-4.87-15.31-14.88-15.31-6.56,0-12.21,4.15-16.68,9.4l-5.87-5.72c6.56-7.21,13.63-11.92,23.79-11.92,14.5,0,23.55,9.15,23.55,23.09,0,14.73-13.51,29.36-32,48.81,4.25-.34,9.13-.67,13.19-.67h22.68v8.69H7202.2Z" transform="translate(-6647.54 -7053.79)"/></svg>