<svg id="Слой_1" data-name="Слой 1" xmlns="http://www.w3.org/2000/svg" viewBox="0 0 400.54 62.21"><defs><style>.cls-1{fill:#ff040b;}.cls-2,.cls-3{fill:#f8ff44;}.cls-3{font-size:25px;font-family:SitkaBanner, Sitka;}</style></defs><g id="Слой_3" data-name="Слой 3"><path class="cls-1" d="M7395.55,7204.11H7002.82a3.53,3.53,0,0,1-3.53-3.53v-21.65a3.53,3.53,0,0,1,3.53-3.53h392.74a4.22,4.22,0,0,1,4.21,4.21v20.29A4.23,4.23,0,0,1,7395.55,7204.11Z" transform="translate(-6999.23 -7168.39)"/><polygon class="cls-2" points="45.29 35.16 28.72 6.46 24.85 6.46 41.42 35.16 45.29 35.16"/><polygon class="cls-2" points="53.41 35.16 36.84 6.46 32.97 6.46 49.54 35.16 53.41 35.16"/><polygon class="cls-2" points="61.79 35.07 45.22 6.37 41.35 6.37 57.92 35.07 61.79 35.07"/><polygon class="cls-2" points="70.28 35.25 53.78 6.67 49.92 6.67 66.43 35.25 70.28 35.25"/><text x="-6999.23" y="-7168.39"/><rect class="cls-2" x="375.72" y="16.12" width="24.81" height="7.03"/><rect class="cls-2" y="17.52" width="16.03" height="6.88"/><text class="cls-3" transform="translate(105.44 28.39) scale(0.99 1)">RAM</text><text x="-6999.23" y="-7168.39"/><text x="-6999.23" y="-7168.39"/></g></svg>