<svg width="950" height="208" xmlns="http://www.w3.org/2000/svg">
 <style type="text/css">.st0{display:none;}
	.st1{display:inline;fill:#549A79;}
	.st2{display:inline;fill:#999999;}
	.st3{display:inline;fill:#F2F2A7;}
	.st4{fill:#808080;}
	.st5{fill:#BFBFBF;}
	.st6{fill:#EFF2F2;}
	.st7{fill:#AEBFBF;}
	.st8{fill:#FFFFFF;}</style>

 <g>
  <title>background</title>
  <rect fill="none" id="canvas_background" height="210" width="952" y="-1" x="-1"/>
 </g>
 <g>
  <title>Layer 1</title>
  <g class="st0" id="Слой_3">
   <path id="svg_1" d="m455.09,-199.61l0,-49.85l-154.19,0l0,0l-129.31,0l0,49.85c8.64,2.46 8.57,13.87 0,16.98l1.05,234.53l133.44,0l0,0l147.79,0l1.23,-234.53c-10.01,-3.11 -10.11,-14.52 -0.01,-16.98z" class="st1"/>
   <path id="svg_2" d="m433.14,-165.19l0.17,-40.24l0,-7.41c0,0 -3.24,-7.93 -8.93,-10.34l-94.76,0l-32.67,0l-94.76,0c-5.68,2.42 -8.93,10.34 -8.93,10.34l0,7.41l0.17,40.24c-8.36,5 -9.74,11.21 -9.74,11.21l0,110.99l9.58,8.97l0,59.71c0.17,5.86 10.39,9.1 10.39,9.1l18.6,0c2.95,3.37 8.66,5.17 8.66,5.17l64.08,0c9.66,-9.52 10.75,-10.81 10.75,-10.81l47.4,0c1.45,1.45 3.31,3.3 5.7,5.64l64.08,0c0,0 10.22,-3.24 10.39,-9.1l0,-59.71l9.58,-8.97l0,-110.99c-0.03,0 -1.41,-6.21 -9.76,-11.21z" class="st2"/>
  </g>
  <g class="st0" id="Слой_4">
   <ellipse id="svg_3" ry="5.24" rx="4.94" cy="-239.36" cx="180.12" class="st3"/>
   <ellipse id="svg_4" ry="3.15" rx="2.97" cy="45.18" cx="447.75" class="st3"/>
   <ellipse id="svg_5" ry="3.15" rx="2.97" cy="-240.59" cx="447.23" class="st3"/>
   <polygon id="svg_6" points="172.58001708984375,37.66999816894531 172.6199951171875,49.38999938964844 185.219970703125,49.38999938964844 " class="st3"/>
   <ellipse id="svg_7" ry="1.83" rx="1.72" cy="-212.67" cx="177.59" class="st3"/>
   <ellipse id="svg_8" ry="1.83" rx="1.72" cy="-209.85" cx="181.63" class="st3"/>
   <ellipse id="svg_9" ry="1.83" rx="1.72" cy="-206.82" cx="177.3" class="st3"/>
   <ellipse id="svg_10" ry="1.83" rx="1.72" cy="-204.01" cx="181.35" class="st3"/>
   <ellipse id="svg_11" ry="2.37" rx="2.24" cy="-243.45" cx="349.64" class="st3"/>
   <ellipse id="svg_12" ry="2.37" rx="2.24" cy="-243.46" cx="344.12" class="st3"/>
   <ellipse id="svg_13" ry="2.37" rx="2.24" cy="-243.46" cx="338.61" class="st3"/>
   <ellipse id="svg_14" ry="2.37" rx="2.24" cy="-243.46" cx="333.09" class="st3"/>
   <ellipse id="svg_15" ry="2.37" rx="2.24" cy="-243.48" cx="327.57" class="st3"/>
   <ellipse id="svg_16" ry="2.37" rx="2.24" cy="-243.48" cx="322.05" class="st3"/>
   <ellipse id="svg_17" ry="2.37" rx="2.24" cy="-243.49" cx="316.54" class="st3"/>
   <ellipse id="svg_18" ry="2.37" rx="2.24" cy="-243.49" cx="311.02" class="st3"/>
   <ellipse id="svg_19" ry="2.37" rx="2.24" cy="-243.51" cx="305.5" class="st3"/>
   <ellipse id="svg_20" ry="2.37" rx="2.24" cy="-243.51" cx="299.99" class="st3"/>
   <ellipse id="svg_21" ry="2.37" rx="2.24" cy="-243.51" cx="294.47" class="st3"/>
   <ellipse id="svg_22" ry="2.37" rx="2.24" cy="-243.52" cx="288.95" class="st3"/>
   <ellipse id="svg_23" ry="2.37" rx="2.24" cy="-243.52" cx="283.43" class="st3"/>
   <ellipse id="svg_24" ry="2.37" rx="2.24" cy="-243.53" cx="277.92" class="st3"/>
   <ellipse id="svg_25" ry="2.37" rx="2.24" cy="-243.53" cx="272.4" class="st3"/>
   <ellipse id="svg_26" ry="2.37" rx="2.24" cy="-243.55" cx="266.88" class="st3"/>
   <ellipse id="svg_27" ry="2.37" rx="2.24" cy="-243.55" cx="261.37" class="st3"/>
   <ellipse id="svg_28" ry="2.37" rx="2.24" cy="-243.55" cx="255.85" class="st3"/>
   <ellipse id="svg_29" ry="2.37" rx="2.24" cy="-243.56" cx="250.33" class="st3"/>
   <ellipse id="svg_30" ry="2.37" rx="2.24" cy="-243.56" cx="244.81" class="st3"/>
   <ellipse id="svg_31" ry="2.37" rx="2.24" cy="-243.58" cx="239.3" class="st3"/>
   <ellipse id="svg_32" ry="2.37" rx="2.24" cy="-243.58" cx="233.78" class="st3"/>
   <ellipse id="svg_33" ry="2.37" rx="2.24" cy="-243.58" cx="228.26" class="st3"/>
   <ellipse id="svg_34" ry="2.37" rx="2.24" cy="-243.59" cx="222.75" class="st3"/>
   <ellipse id="svg_35" ry="2.37" rx="2.24" cy="-243.59" cx="217.23" class="st3"/>
   <ellipse id="svg_36" ry="2.37" rx="2.24" cy="-243.61" cx="211.71" class="st3"/>
   <ellipse id="svg_37" ry="2.37" rx="2.24" cy="-236.47" cx="353.54" class="st3"/>
   <ellipse id="svg_38" ry="2.37" rx="2.24" cy="-236.47" cx="348.02" class="st3"/>
   <ellipse id="svg_39" ry="2.37" rx="2.24" cy="-236.49" cx="342.5" class="st3"/>
   <ellipse id="svg_40" ry="2.37" rx="2.24" cy="-236.49" cx="336.98" class="st3"/>
   <ellipse id="svg_41" ry="2.37" rx="2.24" cy="-236.49" cx="331.46" class="st3"/>
   <ellipse id="svg_42" ry="2.37" rx="2.24" cy="-236.5" cx="325.95" class="st3"/>
   <ellipse id="svg_43" ry="2.37" rx="2.24" cy="-236.5" cx="320.44" class="st3"/>
   <ellipse id="svg_44" ry="2.37" rx="2.24" cy="-236.52" cx="314.92" class="st3"/>
   <ellipse id="svg_45" ry="2.37" rx="2.24" cy="-236.52" cx="309.4" class="st3"/>
   <ellipse id="svg_46" ry="2.37" rx="2.24" cy="-236.53" cx="303.88" class="st3"/>
   <ellipse id="svg_47" ry="2.37" rx="2.24" cy="-236.53" cx="298.36" class="st3"/>
   <ellipse id="svg_48" ry="2.37" rx="2.24" cy="-236.53" cx="292.84" class="st3"/>
   <ellipse id="svg_49" ry="2.37" rx="2.24" cy="-236.55" cx="287.33" class="st3"/>
   <ellipse id="svg_50" ry="2.37" rx="2.24" cy="-236.55" cx="281.82" class="st3"/>
   <ellipse id="svg_51" ry="2.37" rx="2.24" cy="-236.56" cx="276.3" class="st3"/>
   <ellipse id="svg_52" ry="2.37" rx="2.24" cy="-236.56" cx="270.78" class="st3"/>
   <ellipse id="svg_53" ry="2.37" rx="2.24" cy="-236.56" cx="265.26" class="st3"/>
   <ellipse id="svg_54" ry="2.37" rx="2.24" cy="-236.58" cx="259.74" class="st3"/>
   <ellipse id="svg_55" ry="2.37" rx="2.24" cy="-236.58" cx="254.22" class="st3"/>
   <ellipse id="svg_56" ry="2.37" rx="2.24" cy="-236.59" cx="248.71" class="st3"/>
   <ellipse id="svg_57" ry="2.37" rx="2.24" cy="-236.59" cx="243.19" class="st3"/>
   <ellipse id="svg_58" ry="2.37" rx="2.24" cy="-236.6" cx="237.68" class="st3"/>
   <ellipse id="svg_59" ry="2.37" rx="2.24" cy="-236.6" cx="232.16" class="st3"/>
   <ellipse id="svg_60" ry="2.37" rx="2.24" cy="-236.6" cx="226.64" class="st3"/>
   <ellipse id="svg_61" ry="2.37" rx="2.24" cy="-236.62" cx="221.12" class="st3"/>
   <ellipse id="svg_62" ry="2.37" rx="2.24" cy="-236.62" cx="215.6" class="st3"/>
   <ellipse id="svg_63" ry="2.37" rx="2.24" cy="-229.24" cx="359.58" class="st3"/>
   <ellipse id="svg_64" ry="2.37" rx="2.24" cy="-229.24" cx="354.06" class="st3"/>
   <ellipse id="svg_65" ry="2.37" rx="2.24" cy="-229.24" cx="348.55" class="st3"/>
   <ellipse id="svg_66" ry="2.37" rx="2.24" cy="-229.25" cx="343.03" class="st3"/>
   <ellipse id="svg_67" ry="2.37" rx="2.24" cy="-229.25" cx="337.51" class="st3"/>
   <ellipse id="svg_68" ry="2.37" rx="2.24" cy="-229.27" cx="331.99" class="st3"/>
   <ellipse id="svg_69" ry="2.37" rx="2.24" cy="-229.27" cx="326.48" class="st3"/>
   <ellipse id="svg_70" ry="2.37" rx="2.24" cy="-229.28" cx="320.96" class="st3"/>
   <ellipse id="svg_71" ry="2.37" rx="2.24" cy="-229.28" cx="315.45" class="st3"/>
   <ellipse id="svg_72" ry="2.37" rx="2.24" cy="-229.28" cx="309.93" class="st3"/>
   <ellipse id="svg_73" ry="2.37" rx="2.24" cy="-229.29" cx="304.41" class="st3"/>
   <ellipse id="svg_74" ry="2.37" rx="2.24" cy="-229.29" cx="298.89" class="st3"/>
   <ellipse id="svg_75" ry="2.37" rx="2.24" cy="-229.31" cx="293.37" class="st3"/>
   <ellipse id="svg_76" ry="2.37" rx="2.24" cy="-229.31" cx="287.86" class="st3"/>
   <ellipse id="svg_77" ry="2.37" rx="2.24" cy="-229.32" cx="282.34" class="st3"/>
   <ellipse id="svg_78" ry="2.37" rx="2.24" cy="-229.32" cx="276.83" class="st3"/>
   <ellipse id="svg_79" ry="2.37" rx="2.24" cy="-229.32" cx="271.31" class="st3"/>
   <ellipse id="svg_80" ry="2.37" rx="2.24" cy="-229.34" cx="265.79" class="st3"/>
   <ellipse id="svg_81" ry="2.37" rx="2.24" cy="-229.34" cx="260.27" class="st3"/>
   <ellipse id="svg_82" ry="2.37" rx="2.24" cy="-229.35" cx="254.75" class="st3"/>
   <ellipse id="svg_83" ry="2.37" rx="2.24" cy="-229.35" cx="249.23" class="st3"/>
   <ellipse id="svg_84" ry="2.37" rx="2.24" cy="-229.35" cx="243.72" class="st3"/>
   <ellipse id="svg_85" ry="2.37" rx="2.24" cy="-229.37" cx="238.21" class="st3"/>
   <ellipse id="svg_86" ry="2.37" rx="2.24" cy="-229.37" cx="232.69" class="st3"/>
   <ellipse id="svg_87" ry="2.37" rx="2.24" cy="-229.38" cx="227.17" class="st3"/>
   <ellipse id="svg_88" ry="2.37" rx="2.24" cy="-229.38" cx="221.65" class="st3"/>
  </g>
  <path id="svg_89" d="m21.25,53.17l0,-26.24c6.71,-2.77 12.3,-6.56 14.98,-13.01l157.19,-1.36c0.17,4.62 2.84,9.04 7.1,13.33l7.06,0l0,9.92l34.17,-0.23l0,-9.77l5.28,-0.08c5.4,-2.66 8.9,-6.65 8.77,-13.18l128.26,0l0,40.62l125.98,0l0,-40.62l438.33,0l0,40.62l-4.97,0l0,26.59l4.97,0l0,29.26l-8.29,0l0.05,16.13l7.86,0l0,71.35l-926.74,0l0,-67.49l0,-75.84z" class="st4"/>
  <path id="svg_90" d="m-0.79,129.46l22.04,0.45l0,-43.63c0,0 -4.28,6.02 -8.45,2.95c-4.17,-3.07 -5.35,-6.36 -5.35,-6.36l-0.21,-11.93c1.23,-3.78 2.89,-6.68 5.67,-7.31l-13.7,0.3l0,65.53z" class="st5"/>
  <path id="svg_91" d="m21.25,67.03c-1.3,-2.56 -3.68,-4.09 -8.44,-3.37c-4.96,0.61 -13.6,0.28 -13.6,0.28l0,-17.91l11.02,-7.27l0,-10.53c-4.56,-0.39 -8.3,-2.25 -11.02,-5.91l0,-13.03c0,0 2.85,-7.95 9.49,-1.44l-0.07,9.32c0,4.21 2.63,6.71 6.92,8.33c4.05,1.14 6.62,-0.51 7.28,-5.76l6.42,0l4.42,0l-12.42,47.29z" class="st5"/>
  <path id="svg_92" d="m35.24,23.76l-5.99,-4.01c1.95,-6.46 1.72,-11.63 -2.43,-14.45l28.87,0l0,5.59l892.69,-5.3l0,7.73l-913.14,10.44z" class="st5"/>
  <polygon id="svg_93" points="55.719970703125,-3.53997802734375 948.3699951171875,-3.53997802734375 948.3699951171875,5.5999755859375 55.6700439453125,10.8900146484375 " class="st6"/>
  <polygon id="svg_94" points="89.30999755859375,128.1400146484375 94.44000244140625,128.1400146484375 94.44000244140625,114.04998779296875 123.54998779296875,114.04998779296875 123.54998779296875,87.989990234375 99.010009765625,88.9000244140625 98.8599853515625,92.84002685546875 112.55999755859375,92.84002685546875 112.41998291015625,98.9000244140625 89.30999755859375,99.20001220703125 89.30999755859375,87.989990234375 85.030029296875,87.989990234375 85.030029296875,124.6500244140625 89.45001220703125,124.6500244140625 " class="st5"/>
  <polygon id="svg_95" points="90.02001953125,54.739990234375 90.02001953125,71.94000244140625 123.54998779296875,71.40997314453125 123.54998779296875,77.469970703125 105.42999267578125,77.469970703125 102.28997802734375,81.71002197265625 102.3599853515625,83.75 107.3499755859375,83.75 109.21002197265625,79.80999755859375 113.489990234375,79.8900146484375 116.34002685546875,83.75 123.54998779296875,83.75 127.33001708984375,83.75 127.33001708984375,57.70001220703125 106.1400146484375,57.6199951171875 106.21002197265625,54.739990234375 " class="st5"/>
  <rect id="svg_96" height="7.23" width="771.63" class="st5" y="69.25" x="127.33"/>
  <polyline id="svg_97" points="134.6400146484375,119.3499755859375 137.530029296875,119.3499755859375 137.530029296875,56.97998046875 134.6400146484375,56.97998046875 " class="st5"/>
  <polyline id="svg_98" points="142.05999755859375,119.3499755859375 144.95001220703125,119.3499755859375 144.95001220703125,56.97998046875 142.05999755859375,56.97998046875 " class="st5"/>
  <polyline id="svg_99" points="149.47998046875,119.3499755859375 152.3699951171875,119.3499755859375 152.3699951171875,56.97998046875 149.47998046875,56.97998046875 " class="st5"/>
  <polyline id="svg_100" points="156.9000244140625,119.3499755859375 159.780029296875,119.3499755859375 159.780029296875,56.97998046875 156.9000244140625,56.97998046875 " class="st5"/>
  <polyline id="svg_101" points="164.30999755859375,119.3499755859375 167.20001220703125,119.3499755859375 167.20001220703125,56.97998046875 164.30999755859375,56.97998046875 " class="st5"/>
  <polyline id="svg_102" points="171.72998046875,119.3499755859375 174.6199951171875,119.3499755859375 174.6199951171875,56.97998046875 171.72998046875,56.97998046875 " class="st5"/>
  <polyline id="svg_103" points="179.1500244140625,119.3499755859375 182.03997802734375,119.3499755859375 182.03997802734375,56.97998046875 179.1500244140625,56.97998046875 " class="st5"/>
  <polyline id="svg_104" points="186.57000732421875,119.3499755859375 189.46002197265625,119.3499755859375 189.46002197265625,56.97998046875 186.57000732421875,56.97998046875 " class="st5"/>
  <polyline id="svg_105" points="193.989990234375,119.3499755859375 196.8800048828125,119.3499755859375 196.8800048828125,56.97998046875 193.989990234375,56.97998046875 " class="st5"/>
  <polyline id="svg_106" points="201.40997314453125,119.3499755859375 204.29998779296875,119.3499755859375 204.29998779296875,56.97998046875 201.40997314453125,56.97998046875 " class="st5"/>
  <polyline id="svg_107" points="208.83001708984375,119.3499755859375 211.719970703125,119.3499755859375 211.719970703125,56.97998046875 208.83001708984375,56.97998046875 " class="st5"/>
  <polyline id="svg_108" points="216.25,119.3499755859375 219.1300048828125,119.3499755859375 219.1300048828125,56.97998046875 216.25,56.97998046875 " class="st5"/>
  <polyline id="svg_109" points="223.65997314453125,119.3499755859375 226.54998779296875,119.3499755859375 226.54998779296875,56.97998046875 223.65997314453125,56.97998046875 " class="st5"/>
  <polyline id="svg_110" points="231.08001708984375,119.3499755859375 233.969970703125,119.3499755859375 233.969970703125,56.97998046875 231.08001708984375,56.97998046875 " class="st5"/>
  <polyline id="svg_111" points="238.5,119.3499755859375 241.3900146484375,119.3499755859375 241.3900146484375,56.97998046875 238.5,56.97998046875 " class="st5"/>
  <polyline id="svg_112" points="245.91998291015625,119.3499755859375 248.80999755859375,119.3499755859375 248.80999755859375,56.97998046875 245.91998291015625,56.97998046875 " class="st5"/>
  <polyline id="svg_113" points="253.34002685546875,119.3499755859375 256.22998046875,119.3499755859375 256.22998046875,56.97998046875 253.34002685546875,56.97998046875 " class="st5"/>
  <polyline id="svg_114" points="260.760009765625,119.3499755859375 263.6500244140625,119.3499755859375 263.6500244140625,56.97998046875 260.760009765625,56.97998046875 " class="st5"/>
  <polyline id="svg_115" points="268.17999267578125,119.3499755859375 271.07000732421875,119.3499755859375 271.07000732421875,56.97998046875 268.17999267578125,56.97998046875 " class="st5"/>
  <polyline id="svg_116" points="275.5999755859375,119.3499755859375 278.489990234375,119.3499755859375 278.489990234375,56.97998046875 275.5999755859375,56.97998046875 " class="st5"/>
  <polyline id="svg_117" points="283.02001953125,119.3499755859375 285.9000244140625,119.3499755859375 285.9000244140625,56.97998046875 283.02001953125,56.97998046875 " class="st5"/>
  <polyline id="svg_118" points="290.42999267578125,119.3499755859375 293.32000732421875,119.3499755859375 293.32000732421875,56.97998046875 290.42999267578125,56.97998046875 " class="st5"/>
  <polyline id="svg_119" points="297.8499755859375,119.3499755859375 300.739990234375,119.3499755859375 300.739990234375,56.97998046875 297.8499755859375,56.97998046875 " class="st5"/>
  <polyline id="svg_120" points="305.27001953125,119.3499755859375 308.15997314453125,119.3499755859375 308.15997314453125,56.97998046875 305.27001953125,56.97998046875 " class="st5"/>
  <polyline id="svg_121" points="312.69000244140625,119.3499755859375 315.58001708984375,119.3499755859375 315.58001708984375,56.97998046875 312.69000244140625,56.97998046875 " class="st5"/>
  <polyline id="svg_122" points="320.1099853515625,119.3499755859375 323,119.3499755859375 323,56.97998046875 320.1099853515625,56.97998046875 " class="st5"/>
  <polyline id="svg_123" points="327.530029296875,119.3499755859375 330.41998291015625,119.3499755859375 330.41998291015625,56.97998046875 327.530029296875,56.97998046875 " class="st5"/>
  <polyline id="svg_124" points="334.95001220703125,119.3499755859375 337.84002685546875,119.3499755859375 337.84002685546875,56.97998046875 334.95001220703125,56.97998046875 " class="st5"/>
  <polyline id="svg_125" points="342.3699951171875,119.3499755859375 345.25,119.3499755859375 345.25,56.97998046875 342.3699951171875,56.97998046875 " class="st5"/>
  <polyline id="svg_126" points="349.780029296875,119.3499755859375 352.66998291015625,119.3499755859375 352.66998291015625,56.97998046875 349.780029296875,56.97998046875 " class="st5"/>
  <polyline id="svg_127" points="357.20001220703125,119.3499755859375 360.09002685546875,119.3499755859375 360.09002685546875,56.97998046875 357.20001220703125,56.97998046875 " class="st5"/>
  <polyline id="svg_128" points="364.6199951171875,119.3499755859375 367.510009765625,119.3499755859375 367.510009765625,56.97998046875 364.6199951171875,56.97998046875 " class="st5"/>
  <polyline id="svg_129" points="372.03997802734375,119.3499755859375 374.92999267578125,119.3499755859375 374.92999267578125,56.97998046875 372.03997802734375,56.97998046875 " class="st5"/>
  <polyline id="svg_130" points="379.46002197265625,119.3499755859375 382.3499755859375,119.3499755859375 382.3499755859375,56.97998046875 379.46002197265625,56.97998046875 " class="st5"/>
  <polyline id="svg_131" points="386.8800048828125,119.3499755859375 389.77001953125,119.3499755859375 389.77001953125,56.97998046875 386.8800048828125,56.97998046875 " class="st5"/>
  <polyline id="svg_132" points="394.29998779296875,119.3499755859375 397.19000244140625,119.3499755859375 397.19000244140625,56.97998046875 394.29998779296875,56.97998046875 " class="st5"/>
  <polyline id="svg_133" points="401.719970703125,119.3499755859375 404.6099853515625,119.3499755859375 404.6099853515625,56.97998046875 401.719970703125,56.97998046875 " class="st5"/>
  <polyline id="svg_134" points="409.1300048828125,119.3499755859375 412.02001953125,119.3499755859375 412.02001953125,56.97998046875 409.1300048828125,56.97998046875 " class="st5"/>
  <polyline id="svg_135" points="416.54998779296875,119.3499755859375 419.44000244140625,119.3499755859375 419.44000244140625,56.97998046875 416.54998779296875,56.97998046875 " class="st5"/>
  <polyline id="svg_136" points="423.969970703125,119.3499755859375 426.8599853515625,119.3499755859375 426.8599853515625,56.97998046875 423.969970703125,56.97998046875 " class="st5"/>
  <polyline id="svg_137" points="431.3900146484375,119.3499755859375 434.280029296875,119.3499755859375 434.280029296875,56.97998046875 431.3900146484375,56.97998046875 " class="st5"/>
  <polyline id="svg_138" points="438.80999755859375,119.3499755859375 441.70001220703125,119.3499755859375 441.70001220703125,56.97998046875 438.80999755859375,56.97998046875 " class="st5"/>
  <polyline id="svg_139" points="446.22998046875,119.3499755859375 449.1199951171875,119.3499755859375 449.1199951171875,56.97998046875 446.22998046875,56.97998046875 " class="st5"/>
  <polyline id="svg_140" points="453.6500244140625,119.3499755859375 456.53997802734375,119.3499755859375 456.53997802734375,56.97998046875 453.6500244140625,56.97998046875 " class="st5"/>
  <polyline id="svg_141" points="461.07000732421875,119.3499755859375 463.96002197265625,119.3499755859375 463.96002197265625,56.97998046875 461.07000732421875,56.97998046875 " class="st5"/>
  <polyline id="svg_142" points="468.489990234375,119.3499755859375 471.3699951171875,119.3499755859375 471.3699951171875,56.97998046875 468.489990234375,56.97998046875 " class="st5"/>
  <polyline id="svg_143" points="475.9000244140625,119.3499755859375 478.78997802734375,119.3499755859375 478.78997802734375,56.97998046875 475.9000244140625,56.97998046875 " class="st5"/>
  <polyline id="svg_144" points="483.32000732421875,119.3499755859375 486.21002197265625,119.3499755859375 486.21002197265625,56.97998046875 483.32000732421875,56.97998046875 " class="st5"/>
  <polyline id="svg_145" points="490.739990234375,119.3499755859375 493.6300048828125,119.3499755859375 493.6300048828125,56.97998046875 490.739990234375,56.97998046875 " class="st5"/>
  <polyline id="svg_146" points="498.15997314453125,119.3499755859375 501.04998779296875,119.3499755859375 501.04998779296875,56.97998046875 498.15997314453125,56.97998046875 " class="st5"/>
  <polyline id="svg_147" points="505.58001708984375,119.3499755859375 508.469970703125,119.3499755859375 508.469970703125,56.97998046875 505.58001708984375,56.97998046875 " class="st5"/>
  <polyline id="svg_148" points="513,119.3499755859375 515.8900146484375,119.3499755859375 515.8900146484375,56.97998046875 513,56.97998046875 " class="st5"/>
  <polyline id="svg_149" points="520.419921875,119.3499755859375 523.31005859375,119.3499755859375 523.31005859375,56.97998046875 520.419921875,56.97998046875 " class="st5"/>
  <polyline id="svg_150" points="527.840087890625,119.3499755859375 530.72998046875,119.3499755859375 530.72998046875,56.97998046875 527.840087890625,56.97998046875 " class="st5"/>
  <polyline id="svg_151" points="535.25,119.3499755859375 538.1400146484375,119.3499755859375 538.1400146484375,56.97998046875 535.25,56.97998046875 " class="st5"/>
  <polyline id="svg_152" points="542.669921875,119.3499755859375 545.5599365234375,119.3499755859375 545.5599365234375,56.97998046875 542.669921875,56.97998046875 " class="st5"/>
  <polyline id="svg_153" points="550.090087890625,119.3499755859375 552.97998046875,119.3499755859375 552.97998046875,56.97998046875 550.090087890625,56.97998046875 " class="st5"/>
  <polyline id="svg_154" points="557.510009765625,119.3499755859375 560.4000244140625,119.3499755859375 560.4000244140625,56.97998046875 557.510009765625,56.97998046875 " class="st5"/>
  <polyline id="svg_155" points="564.929931640625,119.3499755859375 567.8199462890625,119.3499755859375 567.8199462890625,56.97998046875 564.929931640625,56.97998046875 " class="st5"/>
  <polyline id="svg_156" points="572.3499755859375,119.3499755859375 575.239990234375,119.3499755859375 575.239990234375,56.97998046875 572.3499755859375,56.97998046875 " class="st5"/>
  <polyline id="svg_157" points="579.77001953125,119.3499755859375 582.659912109375,119.3499755859375 582.659912109375,56.97998046875 579.77001953125,56.97998046875 " class="st5"/>
  <polyline id="svg_158" points="587.18994140625,119.3499755859375 590.080078125,119.3499755859375 590.080078125,56.97998046875 587.18994140625,56.97998046875 " class="st5"/>
  <polyline id="svg_159" points="594.6099853515625,119.3499755859375 597.489990234375,119.3499755859375 597.489990234375,56.97998046875 594.6099853515625,56.97998046875 " class="st5"/>
  <polyline id="svg_160" points="602.02001953125,119.3499755859375 604.9100341796875,119.3499755859375 604.9100341796875,56.97998046875 602.02001953125,56.97998046875 " class="st5"/>
  <polyline id="svg_161" points="609.43994140625,119.3499755859375 612.3299560546875,119.3499755859375 612.3299560546875,56.97998046875 609.43994140625,56.97998046875 " class="st5"/>
  <polyline id="svg_162" points="616.8599853515625,119.3499755859375 619.75,119.3499755859375 619.75,56.97998046875 616.8599853515625,56.97998046875 " class="st5"/>
  <polyline id="svg_163" points="624.280029296875,119.3499755859375 627.1700439453125,119.3499755859375 627.1700439453125,56.97998046875 624.280029296875,56.97998046875 " class="st5"/>
  <polyline id="svg_164" points="631.699951171875,119.3499755859375 634.5899658203125,119.3499755859375 634.5899658203125,56.97998046875 631.699951171875,56.97998046875 " class="st5"/>
  <polyline id="svg_165" points="639.1199951171875,119.3499755859375 642.010009765625,119.3499755859375 642.010009765625,56.97998046875 639.1199951171875,56.97998046875 " class="st5"/>
  <polyline id="svg_166" points="646.5400390625,119.3499755859375 649.4300537109375,119.3499755859375 649.4300537109375,56.97998046875 646.5400390625,56.97998046875 " class="st5"/>
  <polyline id="svg_167" points="653.9599609375,119.3499755859375 656.8399658203125,119.3499755859375 656.8399658203125,56.97998046875 653.9599609375,56.97998046875 " class="st5"/>
  <polyline id="svg_168" points="661.3699951171875,119.3499755859375 664.260009765625,119.3499755859375 664.260009765625,56.97998046875 661.3699951171875,56.97998046875 " class="st5"/>
  <polyline id="svg_169" points="668.7900390625,119.3499755859375 671.6800537109375,119.3499755859375 671.6800537109375,56.97998046875 668.7900390625,56.97998046875 " class="st5"/>
  <polyline id="svg_170" points="676.2099609375,119.3499755859375 679.0999755859375,119.3499755859375 679.0999755859375,56.97998046875 676.2099609375,56.97998046875 " class="st5"/>
  <polyline id="svg_171" points="683.6300048828125,119.3499755859375 686.52001953125,119.3499755859375 686.52001953125,56.97998046875 683.6300048828125,56.97998046875 " class="st5"/>
  <polyline id="svg_172" points="691.050048828125,119.3499755859375 693.93994140625,119.3499755859375 693.93994140625,56.97998046875 691.050048828125,56.97998046875 " class="st5"/>
  <polyline id="svg_173" points="698.469970703125,119.3499755859375 701.3599853515625,119.3499755859375 701.3599853515625,56.97998046875 698.469970703125,56.97998046875 " class="st5"/>
  <polyline id="svg_174" points="705.8900146484375,119.3499755859375 708.780029296875,119.3499755859375 708.780029296875,56.97998046875 705.8900146484375,56.97998046875 " class="st5"/>
  <polyline id="svg_175" points="713.31005859375,119.3499755859375 716.199951171875,119.3499755859375 716.199951171875,56.97998046875 713.31005859375,56.97998046875 " class="st5"/>
  <polyline id="svg_176" points="720.72998046875,119.3499755859375 723.6099853515625,119.3499755859375 723.6099853515625,56.97998046875 720.72998046875,56.97998046875 " class="st5"/>
  <polyline id="svg_177" points="728.1400146484375,119.3499755859375 731.030029296875,119.3499755859375 731.030029296875,56.97998046875 728.1400146484375,56.97998046875 " class="st5"/>
  <polyline id="svg_178" points="735.56005859375,119.3499755859375 738.449951171875,119.3499755859375 738.449951171875,56.97998046875 735.56005859375,56.97998046875 " class="st5"/>
  <polyline id="svg_179" points="742.97998046875,119.3499755859375 745.8699951171875,119.3499755859375 745.8699951171875,56.97998046875 742.97998046875,56.97998046875 " class="st5"/>
  <polyline id="svg_180" points="750.4000244140625,119.3499755859375 753.2900390625,119.3499755859375 753.2900390625,56.97998046875 750.4000244140625,56.97998046875 " class="st5"/>
  <polyline id="svg_181" points="757.8199462890625,119.3499755859375 760.7099609375,119.3499755859375 760.7099609375,56.97998046875 757.8199462890625,56.97998046875 " class="st5"/>
  <polyline id="svg_182" points="765.239990234375,119.3499755859375 768.1300048828125,119.3499755859375 768.1300048828125,56.97998046875 765.239990234375,56.97998046875 " class="st5"/>
  <polyline id="svg_183" points="772.6600341796875,119.3499755859375 775.550048828125,119.3499755859375 775.550048828125,56.97998046875 772.6600341796875,56.97998046875 " class="st5"/>
  <polyline id="svg_184" points="780.0799560546875,119.3499755859375 782.9599609375,119.3499755859375 782.9599609375,56.97998046875 780.0799560546875,56.97998046875 " class="st5"/>
  <polyline id="svg_185" points="787.489990234375,119.3499755859375 790.3800048828125,119.3499755859375 790.3800048828125,56.97998046875 787.489990234375,56.97998046875 " class="st5"/>
  <polyline id="svg_186" points="794.9100341796875,119.3499755859375 797.800048828125,119.3499755859375 797.800048828125,56.97998046875 794.9100341796875,56.97998046875 " class="st5"/>
  <polyline id="svg_187" points="802.3299560546875,119.3499755859375 805.219970703125,119.3499755859375 805.219970703125,56.97998046875 802.3299560546875,56.97998046875 " class="st5"/>
  <polyline id="svg_188" points="809.75,119.3499755859375 812.6400146484375,119.3499755859375 812.6400146484375,56.97998046875 809.75,56.97998046875 " class="st5"/>
  <polyline id="svg_189" points="817.1700439453125,119.3499755859375 820.06005859375,119.3499755859375 820.06005859375,56.97998046875 817.1700439453125,56.97998046875 " class="st5"/>
  <polyline id="svg_190" points="824.5899658203125,119.3499755859375 827.47998046875,119.3499755859375 827.47998046875,56.97998046875 824.5899658203125,56.97998046875 " class="st5"/>
  <polyline id="svg_191" points="832.010009765625,119.3499755859375 834.9000244140625,119.3499755859375 834.9000244140625,56.97998046875 832.010009765625,56.97998046875 " class="st5"/>
  <polyline id="svg_192" points="839.4300537109375,119.3499755859375 842.3199462890625,119.3499755859375 842.3199462890625,56.97998046875 839.4300537109375,56.97998046875 " class="st5"/>
  <polyline id="svg_193" points="846.8499755859375,119.3499755859375 849.72998046875,119.3499755859375 849.72998046875,56.97998046875 846.8499755859375,56.97998046875 " class="st5"/>
  <polyline id="svg_194" points="854.260009765625,119.3499755859375 857.1500244140625,119.3499755859375 857.1500244140625,56.97998046875 854.260009765625,56.97998046875 " class="st5"/>
  <polyline id="svg_195" points="861.6800537109375,119.3499755859375 864.5699462890625,119.3499755859375 864.5699462890625,56.97998046875 861.6800537109375,56.97998046875 " class="st5"/>
  <polyline id="svg_196" points="869.0999755859375,119.3499755859375 871.989990234375,119.3499755859375 871.989990234375,56.97998046875 869.0999755859375,56.97998046875 " class="st5"/>
  <polyline id="svg_197" points="876.52001953125,119.3499755859375 879.4100341796875,119.3499755859375 879.4100341796875,56.97998046875 876.52001953125,56.97998046875 " class="st5"/>
  <polyline id="svg_198" points="883.93994140625,119.3499755859375 886.8299560546875,119.3499755859375 886.8299560546875,56.97998046875 883.93994140625,56.97998046875 " class="st5"/>
  <polyline id="svg_199" points="891.3599853515625,119.3499755859375 894.25,119.3499755859375 894.25,56.97998046875 891.3599853515625,56.97998046875 " class="st5"/>
  <path id="svg_200" d="m197.08,21.91l3.43,3.97l7.06,0l0,9.92l34.17,-0.23l0,-9.77l5.28,-0.08c2.56,-1.19 4.66,-2.8 5.72,-4.46l-55.66,0.65z"/>
  <polygon id="svg_201" points="384.05999755859375,19.77001953125 384.05999755859375,53.16998291015625 510.03997802734375,53.16998291015625 510.03997802734375,18.33001708984375 "/>
  <path id="svg_202" d="m22.52,119.64l0,75.1l925.46,0l0,-71.35l-17.37,-0.04l-22.54,31.81c-1.6,2.05 -3.62,3.47 -6.71,3.33l-89.17,0.3l-24.29,-0.19l-29.53,19.43l-4.07,2.39l-67.95,0.17l-464.8,-0.06l-35.12,-21.98l-114.14,-3.09l-21.29,-35.82l-28.48,0z" class="st6"/>
  <path id="svg_203" d="m361.3,181" class="st7"/>
  <rect id="svg_204" height="6.82" width="6.42" class="st8" y="25.07" x="390.94"/>
  <rect id="svg_205" height="6.82" width="6.42" class="st8" y="39.37" x="390.73"/>
  <rect id="svg_206" height="6.82" width="6.42" class="st8" y="25.19" x="404.11"/>
  <rect id="svg_207" height="6.82" width="6.42" class="st8" y="39.49" x="403.89"/>
  <rect id="svg_208" height="6.82" width="6.42" class="st8" y="25.19" x="404.11"/>
  <rect id="svg_209" height="6.82" width="6.42" class="st8" y="39.49" x="403.89"/>
  <rect id="svg_210" height="6.82" width="6.42" class="st8" y="25.31" x="417.27"/>
  <rect id="svg_211" height="6.82" width="6.42" class="st8" y="39.61" x="417.05"/>
  <rect id="svg_212" height="6.82" width="6.42" class="st8" y="25.31" x="417.27"/>
  <rect id="svg_213" height="6.82" width="6.42" class="st8" y="39.61" x="417.05"/>
  <rect id="svg_214" height="6.82" width="6.42" class="st8" y="25.44" x="430.43"/>
  <rect id="svg_215" height="6.82" width="6.42" class="st8" y="39.73" x="430.21"/>
  <rect id="svg_216" height="6.82" width="6.42" class="st8" y="25.44" x="430.43"/>
  <rect id="svg_217" height="6.82" width="6.42" class="st8" y="39.73" x="430.21"/>
  <rect id="svg_218" height="6.82" width="6.42" class="st8" y="25.56" x="443.59"/>
  <rect id="svg_219" height="6.82" width="6.42" class="st8" y="39.85" x="443.38"/>
  <rect id="svg_220" height="6.82" width="6.42" class="st8" y="25.56" x="443.59"/>
  <rect id="svg_221" height="6.82" width="6.42" class="st8" y="39.85" x="443.38"/>
  <rect id="svg_222" height="6.82" width="6.42" class="st8" y="25.68" x="456.75"/>
  <rect id="svg_223" height="6.82" width="6.42" class="st8" y="39.98" x="456.54"/>
  <rect id="svg_224" height="6.82" width="6.42" class="st8" y="25.68" x="456.75"/>
  <rect id="svg_225" height="6.82" width="6.42" class="st8" y="39.98" x="456.54"/>
  <rect id="svg_226" height="6.82" width="6.42" class="st8" y="25.8" x="469.91"/>
  <rect id="svg_227" height="6.82" width="6.42" class="st8" y="40.1" x="469.7"/>
  <rect id="svg_228" height="6.82" width="6.42" class="st8" y="25.8" x="469.91"/>
  <rect id="svg_229" height="6.82" width="6.42" class="st8" y="40.1" x="469.7"/>
  <rect id="svg_230" height="6.82" width="6.42" class="st8" y="25.92" x="483.07"/>
  <rect id="svg_231" height="6.82" width="6.42" class="st8" y="40.22" x="482.86"/>
  <rect id="svg_232" height="6.82" width="6.42" class="st8" y="25.92" x="483.07"/>
  <rect id="svg_233" height="6.82" width="6.42" class="st8" y="40.22" x="482.86"/>
  <rect id="svg_234" height="6.82" width="6.42" class="st8" y="26.04" x="496.23"/>
  <rect id="svg_235" height="6.82" width="6.42" class="st8" y="40.34" x="496.02"/>
  <rect id="svg_236" height="4.28" width="4.03" class="st8" y="23.61" x="211.11"/>
  <rect id="svg_237" height="4.28" width="4.03" class="st8" y="23.61" x="218.24"/>
  <rect id="svg_238" height="4.28" width="4.03" class="st8" y="23.61" x="218.24"/>
  <rect id="svg_239" height="4.28" width="4.03" class="st8" y="23.61" x="225.37"/>
  <rect id="svg_240" height="4.28" width="4.03" class="st8" y="23.61" x="225.37"/>
  <rect id="svg_241" height="4.28" width="4.03" class="st8" y="23.61" x="232.5"/>
  <rect id="svg_242" height="4.28" width="4.03" class="st8" y="23.76" x="218.24"/>
  <rect id="svg_243" height="4.28" width="4.03" class="st8" y="23.76" x="225.37"/>
  <rect id="svg_244" height="4.28" width="4.03" class="st8" y="23.76" x="232.5"/>
  <rect id="svg_245" height="4.28" width="4.03" class="st8" y="29.65" x="218.27"/>
  <rect id="svg_246" height="4.28" width="4.03" class="st8" y="29.65" x="225.4"/>
  <rect id="svg_247" height="4.28" width="4.03" class="st8" y="29.65" x="232.53"/>
  <rect id="svg_248" height="4.28" width="4.03" class="st8" y="29.59" x="211.11"/>
 </g>
</svg>